<svg width="15" height="15" viewBox="0 0 15 15" fill="none" xmlns="http://www.w3.org/2000/svg">
<path d="M4.35332 8.31088L6.3321 10.6854L9.10239 7.12361L12.6642 11.8727H1.58302M14.2472 12.6642V1.58302C14.2472 1.16318 14.0804 0.760531 13.7836 0.463657C13.4867 0.166782 13.084 0 12.6642 0H1.58302C1.16318 0 0.760531 0.166782 0.463657 0.463657C0.166782 0.760531 0 1.16318 0 1.58302V12.6642C0 13.084 0.166782 13.4867 0.463657 13.7836C0.760531 14.0804 1.16318 14.2472 1.58302 14.2472H12.6642C13.084 14.2472 13.4867 14.0804 13.7836 13.7836C14.0804 13.4867 14.2472 13.084 14.2472 12.6642Z" fill="#E30016"/>
</svg>
