<svg width="12" height="12" viewBox="0 0 12 12" fill="none" xmlns="http://www.w3.org/2000/svg">
<path fill-rule="evenodd" clip-rule="evenodd" d="M9.34094 0.155535C10.1179 -0.288965 11.0863 0.272201 11.0863 1.1682V8.49137C11.0863 9.38678 10.1185 9.94853 9.34094 9.50403L7.00294 8.1682V1.49137L9.34094 0.155535ZM5.83627 1.91312H2.9196C2.1963 1.91239 1.49853 2.18045 0.961743 2.66525C0.42496 3.15006 0.0874644 3.81702 0.0147731 4.53666C-0.0579181 5.25631 0.139382 5.97729 0.568371 6.55964C0.99736 7.142 1.62743 7.54418 2.33627 7.68812V9.78812C2.33627 10.1749 2.48992 10.5458 2.76341 10.8193C3.0369 11.0928 3.40783 11.2465 3.7946 11.2465C4.18138 11.2465 4.55231 11.0928 4.8258 10.8193C5.09929 10.5458 5.25294 10.1749 5.25294 9.78812V7.74645H5.83627V1.91312Z" fill="black"/>
</svg>
