<svg width="124" height="124" viewBox="0 0 124 124" fill="none" xmlns="http://www.w3.org/2000/svg">
<path d="M40.0797 68.4203C34.2661 62.6067 31 54.7217 31 46.5C31 38.2783 34.2661 30.3933 40.0797 24.5797C45.8933 18.7661 53.7783 15.5 62 15.5C70.2217 15.5 78.1067 18.7661 83.9203 24.5797C89.7339 30.3933 93 38.2783 93 46.5C93 54.7217 89.7339 62.6067 83.9203 68.4203C78.1067 74.2339 70.2217 77.5 62 77.5C53.7783 77.5 45.8933 74.2339 40.0797 68.4203Z" stroke="#A1A1A1" stroke-width="5.5" stroke-linecap="round" stroke-linejoin="round"/>
<path d="M62 77.5C68.8872 75.7795 72.3333 74.9167 72.3333 46.5C72.3333 27.5556 68.8889 17.2222 62 15.5C55.1111 17.2222 51.6667 27.5556 51.6667 46.5C51.6667 74.9167 55.1128 75.7795 62 77.5ZM62 77.5V93M31 46.5H93M15.5 103.333H51.6667M51.6667 103.333C51.6667 106.074 52.7554 108.702 54.6932 110.64C56.6311 112.578 59.2594 113.667 62 113.667C64.7406 113.667 67.3689 112.578 69.3068 110.64C71.2446 108.702 72.3333 106.074 72.3333 103.333M51.6667 103.333C51.6667 100.593 52.7554 97.9644 54.6932 96.0266C56.6311 94.0887 59.2594 93 62 93M72.3333 103.333H108.5M72.3333 103.333C72.3333 100.593 71.2446 97.9644 69.3068 96.0266C67.3689 94.0887 64.7406 93 62 93" stroke="#A1A1A1" stroke-width="5.5" stroke-linecap="round" stroke-linejoin="round"/>
</svg>
