<svg width="18" height="18" viewBox="0 0 18 18" fill="none" xmlns="http://www.w3.org/2000/svg">
<path d="M16.5686 10.1961H10.1961V16.5686C10.1961 16.9066 10.0618 17.2308 9.82278 17.4698C9.58377 17.7089 9.25959 17.8431 8.92157 17.8431C8.58355 17.8431 8.25937 17.7089 8.02035 17.4698C7.78134 17.2308 7.64706 16.9066 7.64706 16.5686V10.1961H1.27451C0.936489 10.1961 0.612312 10.0618 0.373296 9.82278C0.134279 9.58377 0 9.25959 0 8.92157C0 8.58355 0.134279 8.25937 0.373296 8.02035C0.612312 7.78134 0.936489 7.64706 1.27451 7.64706H7.64706V1.27451C7.64706 0.936489 7.78134 0.612312 8.02035 0.373295C8.25937 0.134278 8.58355 0 8.92157 0C9.25959 0 9.58377 0.134278 9.82278 0.373295C10.0618 0.612312 10.1961 0.936489 10.1961 1.27451V7.64706H16.5686C16.9066 7.64706 17.2308 7.78134 17.4698 8.02035C17.7089 8.25937 17.8431 8.58355 17.8431 8.92157C17.8431 9.25959 17.7089 9.58377 17.4698 9.82278C17.2308 10.0618 16.9066 10.1961 16.5686 10.1961Z" fill="white"/>
</svg>
