<svg width="13" height="16" viewBox="0 0 13 16" fill="none" xmlns="http://www.w3.org/2000/svg">
<path d="M6.3321 0L6.4247 0.00554056C6.60138 0.0263762 6.76589 0.106125 6.89169 0.231922C7.01748 0.357718 7.09723 0.522226 7.11807 0.698905L7.12361 0.791512V3.95756L7.12757 4.07629C7.15589 4.45318 7.31813 4.80751 7.58495 5.0752C7.85177 5.34289 8.20556 5.50628 8.58236 5.53583L8.70663 5.54058H11.8727L11.9653 5.54612C12.142 5.56696 12.3065 5.64671 12.4323 5.77251C12.5581 5.8983 12.6378 6.06281 12.6587 6.23949L12.6642 6.3321V13.4557C12.6642 14.0614 12.4328 14.6442 12.0173 15.0848C11.6018 15.5255 11.0336 15.7907 10.429 15.8263L10.2897 15.8302H2.37454C1.76886 15.8303 1.18607 15.5989 0.745398 15.1833C0.304727 14.7678 0.0394905 14.1996 0.00395765 13.595L3.6888e-09 13.4557V2.37454C-3.37356e-05 1.76886 0.231379 1.18607 0.64689 0.745398C1.0624 0.304727 1.6306 0.0394905 2.23523 0.00395765L2.37454 0H6.3321Z" fill="#E30016"/>
<path d="M11.8729 3.95755H8.70685L8.70605 0.79071L11.8729 3.95755Z" fill="#E30016"/>
</svg>
