<svg width="17" height="11" viewBox="0 0 17 11" fill="none" xmlns="http://www.w3.org/2000/svg">
<path d="M0 2.54415C0 1.8694 0.268043 1.22228 0.745163 0.745163C1.22228 0.268043 1.8694 0 2.54415 0H8.31087C8.98562 0 9.63274 0.268043 10.1099 0.745163C10.587 1.22228 10.855 1.8694 10.855 2.54415V8.31087C10.855 8.98562 10.587 9.63274 10.1099 10.1099C9.63274 10.587 8.98562 10.855 8.31087 10.855H2.54415C1.8694 10.855 1.22228 10.587 0.745163 10.1099C0.268043 9.63274 0 8.98562 0 8.31087V2.54415ZM14.4182 9.96152L11.5335 7.96962V2.88336L14.4182 0.891469C15.2052 0.347361 16.2798 0.911822 16.2798 1.86842V8.98524C16.2798 9.94184 15.2058 10.5049 14.4182 9.96152Z" fill="#E30016"/>
</svg>
