<svg width="14" height="15" viewBox="0 0 14 15" fill="none" xmlns="http://www.w3.org/2000/svg">
<path d="M8.86862 1.58609e-05C8.28341 -0.0015502 7.70368 0.11287 7.16295 0.336665C6.62221 0.560459 6.13119 0.889192 5.71824 1.30387L0.261777 6.76152C0.0943871 6.92859 0.000223091 7.15532 3.95896e-07 7.39182C-0.0002223 7.62833 0.0935144 7.85523 0.260589 8.02262C0.427665 8.19001 0.654392 8.28417 0.890895 8.2844C1.1274 8.28462 1.3543 8.19088 1.52169 8.02381L6.98053 2.56378C7.48834 2.09693 8.15692 1.84436 8.84657 1.85885C9.53621 1.87334 10.1936 2.15375 10.6814 2.64152C11.1691 3.12928 11.4495 3.78666 11.464 4.4763C11.4785 5.16595 11.2259 5.83452 10.7591 6.34234L4.46189 12.6395C4.29306 12.7969 4.06976 12.8825 3.83903 12.8784C3.6083 12.8744 3.38816 12.7809 3.22499 12.6177C3.06181 12.4545 2.96834 12.2344 2.96427 12.0037C2.9602 11.7729 3.04584 11.5496 3.20316 11.3808L9.50036 5.08361C9.66775 4.91638 9.76185 4.6895 9.76196 4.45289C9.76207 4.21627 9.66819 3.98931 9.50095 3.82192C9.33372 3.65453 9.10684 3.56042 8.87023 3.56031C8.63361 3.5602 8.40665 3.65409 8.23926 3.82132L1.94087 10.1209C1.47402 10.6287 1.22145 11.2973 1.23594 11.9869C1.25043 12.6766 1.53084 13.334 2.01861 13.8217C2.50637 14.3095 3.16374 14.5899 3.85339 14.6044C4.54304 14.6189 5.21161 14.3663 5.71943 13.8995L12.0166 7.60225C12.4314 7.18955 12.7602 6.69876 12.9842 6.15823C13.2082 5.61771 13.3229 5.03816 13.3217 4.45306C13.3204 3.27243 12.8508 2.14051 12.016 1.30567C11.1812 0.470836 10.0493 0.00127319 8.86862 1.58609e-05Z" fill="white"/>
</svg>
